<svg width="8in" height="6in" version="1.1" viewBox="0 0 203.2 152.4" xmlns="http://www.w3.org/2000/svg" xmlns:xlink="http://www.w3.org/1999/xlink">
  <defs>
    <linearGradient id="linearGradient1259" gradientTransform="matrix(3.7795 0 0 3.7795 -1375.4 -644.05)">
      <stop style="stop-color:#393939" offset="0"/>
    </linearGradient>
    <linearGradient id="linearGradient985" gradientTransform="matrix(1 0 2 1 1515 -611.33)">
      <stop style="stop-color:#787473" offset="0"/>
    </linearGradient>
    <linearGradient id="linearGradient979" gradientTransform="matrix(.26458 0 0 .26458 40.464 64.051)">
      <stop style="stop-color:#bf5d28" offset="0"/>
    </linearGradient>
  </defs>
  <g transform="translate(0,-144.6)" style="display:none;opacity:.69655">
    <image x="-108.62" y="119.68" width="331.19" height="186.3" preserveAspectRatio="none" xlink:href="file:///home/lbrown/VideoEditing/Tutorials/JavascriptInterview/TimeComplexity/stills/fib_rec.png"/>
  </g>
  <g transform="translate(0 -50.8)" style="display:none">
    <rect x="-10.784" y="-8.8778" width="227.06" height="221.06" style="fill:#fff;stroke-width:2.54;stroke:#fff"/>
  </g>
  <g transform="translate(0 -50.8)">
    <path d="m124.92 65.241c-5.2706 1e-6-9.5565 4.288-9.5565 9.5586 0 1.4534.32741 2.8309.91002 4.0654l-33.118 18.849c-1.6857-2.7223-4.6988-4.5403-8.1303-4.5403-5.2706 0-9.5586 4.2864-9.5586 9.557 1e-6 2.5062.97074 4.7888 2.5544 6.4952l-13.404 13.886c-1.6324-1.2994-3.6964-2.0784-5.9407-2.0784-5.2706 0-9.5586 4.2859-9.5586 9.5565 0 2.9551 1.3484 5.6009 3.4618 7.3556l-8.7349 13.102c-1.4571-.89937-3.1718-1.4201-5.0064-1.4201-5.2706 0-9.5565 4.2859-9.5565 9.5565 1e-6 3.6636 2.0722 6.8503 5.1051 8.4543l-6.3035 12.863c-1.1188-.46028-2.3427-.71572-3.6256-.71572-5.2706 0-9.557 4.2859-9.557 9.5565-5.3e-6 5.2706 4.2864 9.5586 9.557 9.5586 5.2706 0 9.5586-4.288 9.5586-9.5586-1e-6-3.5168-1.9107-6.5934-4.747-8.2527l6.3267-12.914c1.0128.3664 2.1044.56689 3.2422.56689 5.2706 0 9.5586-4.288 9.5586-9.5586 0-2.9613-1.3537-5.6118-3.4747-7.366l8.7328-13.099c1.4603.90539 3.1805 1.4299 5.0214 1.4299 5.2706 0 9.5565-4.288 9.5565-9.5586-1e-6-2.5513-1.006-4.8702-2.6401-6.5856l13.391-13.873c1.6478 1.3476 3.7517 2.1575 6.0415 2.1575 5.2706 0 9.557-4.288 9.557-9.5586 0-1.3673-.29053-2.6676-.80977-3.8447l33.147-18.869c1.7078 2.6096 4.6544 4.3382 8 4.3382 5.2706-1e-6 9.5586-4.2859 9.5586-9.5565 0-5.2706-4.288-9.5586-9.5586-9.5586zm0 1.3219c4.5557 1e-6 8.2346 3.681 8.2346 8.2367 0 4.5557-3.679 8.2341-8.2346 8.2341-4.5557-1e-6-8.2341-3.6785-8.2341-8.2341 0-4.5557 3.6785-8.2367 8.2341-8.2367zm-49.895 27.934c4.5557 0 8.2346 3.679 8.2346 8.2346 0 4.5557-3.679 8.2341-8.2346 8.2341-4.5557 0-8.2341-3.6785-8.2341-8.2341 0-4.5557 3.6785-8.2346 8.2341-8.2346zm-26.349 27.859c4.5557 0 8.2341 3.679 8.2341 8.2346 0 4.5557-3.6785 8.2341-8.2341 8.2341-4.5557 0-8.2362-3.6785-8.2362-8.2341 1e-6-4.5557 3.6805-8.2346 8.2362-8.2346zm-19.838 28.594c4.5557 0 8.2346 3.6784 8.2346 8.2341-1e-6 4.5557-3.679 8.2346-8.2346 8.2346-4.5557 0-8.2341-3.679-8.2341-8.2346 0-4.5557 3.6785-8.2341 8.2341-8.2341zm-14.381 30.158c4.5557 0 8.2341 3.679 8.2341 8.2346 5e-6 4.5557-3.6785 8.2341-8.2341 8.2341-4.5557 0-8.2346-3.6785-8.2346-8.2341 0-4.5557 3.679-8.2346 8.2346-8.2346z" style="color-rendering:auto;color:#000000;dominant-baseline:auto;fill:url(#linearGradient985);font-feature-settings:normal;font-variant-alternates:normal;font-variant-caps:normal;font-variant-ligatures:normal;font-variant-numeric:normal;font-variant-position:normal;image-rendering:auto;isolation:auto;mix-blend-mode:normal;shape-padding:0;shape-rendering:auto;solid-color:#000000;stroke-width:1.0583;stroke:url(#linearGradient979);text-decoration-color:#000000;text-decoration-line:none;text-decoration-style:solid;text-indent:0;text-orientation:mixed;text-transform:none;white-space:normal"/>
    <path d="m167.79 109.51-9.5078 14.262 1.0996.73438 9.5078-14.262z" style="color-rendering:auto;color:#000000;dominant-baseline:auto;fill:url(#linearGradient985);font-feature-settings:normal;font-variant-alternates:normal;font-variant-caps:normal;font-variant-ligatures:normal;font-variant-numeric:normal;font-variant-position:normal;image-rendering:auto;isolation:auto;mix-blend-mode:normal;shape-padding:0;shape-rendering:auto;solid-color:#000000;stroke-width:.26458;stroke:url(#linearGradient1259);text-decoration-color:#000000;text-decoration-line:none;text-decoration-style:solid;text-indent:0;text-orientation:mixed;text-transform:none;white-space:normal"/>
    <path d="m178.52 110.25-1.1641.63282 6.834 12.578 1.1621-.63281z" style="color-rendering:auto;color:#000000;dominant-baseline:auto;fill:url(#linearGradient985);font-feature-settings:normal;font-variant-alternates:normal;font-variant-caps:normal;font-variant-ligatures:normal;font-variant-numeric:normal;font-variant-position:normal;image-rendering:auto;isolation:auto;mix-blend-mode:normal;shape-padding:0;shape-rendering:auto;solid-color:#000000;stroke-width:.26458;stroke:url(#linearGradient1259);text-decoration-color:#000000;text-decoration-line:none;text-decoration-style:solid;text-indent:0;text-orientation:mixed;text-transform:none;white-space:normal"/>
    <path d="m133.02 78.688-.6543 1.1484 33.268 18.922.6543-1.1484z" style="color-rendering:auto;color:#000000;dominant-baseline:auto;fill:url(#linearGradient985);font-feature-settings:normal;font-variant-alternates:normal;font-variant-caps:normal;font-variant-ligatures:normal;font-variant-numeric:normal;font-variant-position:normal;image-rendering:auto;isolation:auto;mix-blend-mode:normal;shape-padding:0;shape-rendering:auto;solid-color:#000000;stroke-width:.26458;stroke:url(#linearGradient1259);text-decoration-color:#000000;text-decoration-line:none;text-decoration-style:solid;text-indent:0;text-orientation:mixed;text-transform:none;white-space:normal"/>
    <path d="m116.7 78.646-34.246 19.492.6543 1.1504 34.246-19.494z" style="color-rendering:auto;color:#000000;dominant-baseline:auto;fill:url(#linearGradient985);font-feature-settings:normal;font-variant-alternates:normal;font-variant-caps:normal;font-variant-ligatures:normal;font-variant-numeric:normal;font-variant-position:normal;image-rendering:auto;isolation:auto;mix-blend-mode:normal;shape-padding:0;shape-rendering:auto;solid-color:#000000;stroke-width:.26458;stroke:url(#linearGradient1259);text-decoration-color:#000000;text-decoration-line:none;text-decoration-style:solid;text-indent:0;text-orientation:mixed;text-transform:none;white-space:normal"/>
    <path d="m68.551 108.69-14.402 14.92.95117.91797 14.402-14.92z" style="color-rendering:auto;color:#000000;dominant-baseline:auto;fill:url(#linearGradient985);font-feature-settings:normal;font-variant-alternates:normal;font-variant-caps:normal;font-variant-ligatures:normal;font-variant-numeric:normal;font-variant-position:normal;image-rendering:auto;isolation:auto;mix-blend-mode:normal;shape-padding:0;shape-rendering:auto;solid-color:#000000;stroke-width:.26458;stroke:url(#linearGradient1259);text-decoration-color:#000000;text-decoration-line:none;text-decoration-style:solid;text-indent:0;text-orientation:mixed;text-transform:none;white-space:normal"/>
    <path d="m42.828 137.57-9.5078 14.262 1.1016.73438 9.5078-14.262z" style="color-rendering:auto;color:#000000;dominant-baseline:auto;fill:url(#linearGradient985);font-feature-settings:normal;font-variant-alternates:normal;font-variant-caps:normal;font-variant-ligatures:normal;font-variant-numeric:normal;font-variant-position:normal;image-rendering:auto;isolation:auto;mix-blend-mode:normal;shape-padding:0;shape-rendering:auto;solid-color:#000000;stroke-width:.26458;stroke:url(#linearGradient1259);text-decoration-color:#000000;text-decoration-line:none;text-decoration-style:solid;text-indent:0;text-orientation:mixed;text-transform:none;white-space:normal"/>
    <path d="m33.496 167.09-1.1875.58203 6.8164 13.914 1.1895-.58203z" style="color-rendering:auto;color:#000000;dominant-baseline:auto;fill:url(#linearGradient985);font-feature-settings:normal;font-variant-alternates:normal;font-variant-caps:normal;font-variant-ligatures:normal;font-variant-numeric:normal;font-variant-position:normal;image-rendering:auto;isolation:auto;mix-blend-mode:normal;shape-padding:0;shape-rendering:auto;solid-color:#000000;stroke-width:.26458;stroke:url(#linearGradient1259);text-decoration-color:#000000;text-decoration-line:none;text-decoration-style:solid;text-indent:0;text-orientation:mixed;text-transform:none;white-space:normal"/>
    <path d="m53.566 138.31-1.1621.63086 6.834 12.578 1.1621-.63086z" style="color-rendering:auto;color:#000000;dominant-baseline:auto;fill:url(#linearGradient985);font-feature-settings:normal;font-variant-alternates:normal;font-variant-caps:normal;font-variant-ligatures:normal;font-variant-numeric:normal;font-variant-position:normal;image-rendering:auto;isolation:auto;mix-blend-mode:normal;shape-padding:0;shape-rendering:auto;solid-color:#000000;stroke-width:.26458;stroke:url(#linearGradient1259);text-decoration-color:#000000;text-decoration-line:none;text-decoration-style:solid;text-indent:0;text-orientation:mixed;text-transform:none;white-space:normal"/>
    <path d="m24.646 167.09-6.8184 13.914 1.1895.58203 6.8164-13.914z" style="color-rendering:auto;color:#000000;dominant-baseline:auto;fill:url(#linearGradient985);font-feature-settings:normal;font-variant-alternates:normal;font-variant-caps:normal;font-variant-ligatures:normal;font-variant-numeric:normal;font-variant-position:normal;image-rendering:auto;isolation:auto;mix-blend-mode:normal;shape-padding:0;shape-rendering:auto;solid-color:#000000;stroke-width:.26458;stroke:url(#linearGradient1259);text-decoration-color:#000000;text-decoration-line:none;text-decoration-style:solid;text-indent:0;text-orientation:mixed;text-transform:none;white-space:normal"/>
    <path d="m173.6 93.014c-5.2706 0-9.5586 4.288-9.5586 9.5586 0 5.2706 4.288 9.5566 9.5586 9.5566s9.5566-4.286 9.5566-9.5566c0-5.2706-4.286-9.5586-9.5566-9.5586zm0 1.3223c4.5557 0 8.2344 3.6807 8.2344 8.2363 0 4.5557-3.6787 8.2344-8.2344 8.2344-4.5557 0-8.2344-3.6787-8.2344-8.2344 0-4.5557 3.6787-8.2363 8.2344-8.2363z" style="color-rendering:auto;color:#000000;dominant-baseline:auto;fill:url(#linearGradient985);font-feature-settings:normal;font-variant-alternates:normal;font-variant-caps:normal;font-variant-ligatures:normal;font-variant-numeric:normal;font-variant-position:normal;image-rendering:auto;isolation:auto;mix-blend-mode:normal;shape-padding:0;shape-rendering:auto;solid-color:#000000;stroke-width:.26458;stroke:url(#linearGradient1259);text-decoration-color:#000000;text-decoration-line:none;text-decoration-style:solid;text-indent:0;text-orientation:mixed;text-transform:none;white-space:normal"/>
    <path d="m158.45 139.03-1.1875.58204 6.8184 13.916 1.1875-.58203z" style="color-rendering:auto;color:#000000;dominant-baseline:auto;fill:url(#linearGradient985);font-feature-settings:normal;font-variant-alternates:normal;font-variant-caps:normal;font-variant-ligatures:normal;font-variant-numeric:normal;font-variant-position:normal;image-rendering:auto;isolation:auto;mix-blend-mode:normal;shape-padding:0;shape-rendering:auto;solid-color:#000000;stroke-width:.26458;stroke:url(#linearGradient1259);text-decoration-color:#000000;text-decoration-line:none;text-decoration-style:solid;text-indent:0;text-orientation:mixed;text-transform:none;white-space:normal"/>
    <path d="m149.6 139.03-6.8164 13.916 1.1875.58203 6.8184-13.916z" style="color-rendering:auto;color:#000000;dominant-baseline:auto;fill:url(#linearGradient985);font-feature-settings:normal;font-variant-alternates:normal;font-variant-caps:normal;font-variant-ligatures:normal;font-variant-numeric:normal;font-variant-position:normal;image-rendering:auto;isolation:auto;mix-blend-mode:normal;shape-padding:0;shape-rendering:auto;solid-color:#000000;stroke-width:.26458;stroke:url(#linearGradient1259);text-decoration-color:#000000;text-decoration-line:none;text-decoration-style:solid;text-indent:0;text-orientation:mixed;text-transform:none;white-space:normal"/>
    <path d="m105.85 138.2-1.1895.58203 6.8184 13.914 1.1895-.58203z" style="color-rendering:auto;color:#000000;dominant-baseline:auto;fill:url(#linearGradient985);font-feature-settings:normal;font-variant-alternates:normal;font-variant-caps:normal;font-variant-ligatures:normal;font-variant-numeric:normal;font-variant-position:normal;image-rendering:auto;isolation:auto;mix-blend-mode:normal;shape-padding:0;shape-rendering:auto;solid-color:#000000;stroke-width:.26458;stroke:url(#linearGradient1259);text-decoration-color:#000000;text-decoration-line:none;text-decoration-style:solid;text-indent:0;text-orientation:mixed;text-transform:none;white-space:normal"/>
    <path d="m97.004 138.2-6.8184 13.914 1.1895.58203 6.8164-13.914z" style="color-rendering:auto;color:#000000;dominant-baseline:auto;fill:url(#linearGradient985);font-feature-settings:normal;font-variant-alternates:normal;font-variant-caps:normal;font-variant-ligatures:normal;font-variant-numeric:normal;font-variant-position:normal;image-rendering:auto;isolation:auto;mix-blend-mode:normal;shape-padding:0;shape-rendering:auto;solid-color:#000000;stroke-width:.26458;stroke:url(#linearGradient1259);text-decoration-color:#000000;text-decoration-line:none;text-decoration-style:solid;text-indent:0;text-orientation:mixed;text-transform:none;white-space:normal"/>
    <path d="m81.623 108.69-.95312.91797 14.402 14.92.95312-.91797z" style="color-rendering:auto;color:#000000;dominant-baseline:auto;fill:url(#linearGradient985);font-feature-settings:normal;font-variant-alternates:normal;font-variant-caps:normal;font-variant-ligatures:normal;font-variant-numeric:normal;font-variant-position:normal;image-rendering:auto;isolation:auto;mix-blend-mode:normal;shape-padding:0;shape-rendering:auto;solid-color:#000000;stroke-width:.26458;stroke:url(#linearGradient1259);text-decoration-color:#000000;text-decoration-line:none;text-decoration-style:solid;text-indent:0;text-orientation:mixed;text-transform:none;white-space:normal"/>
    <path d="m124.89 65.279c-5.2706 1e-6-9.5566 4.288-9.5566 9.5586 0 5.2706 4.286 9.5566 9.5566 9.5566 5.2706-1e-6 9.5586-4.286 9.5586-9.5566 0-5.2706-4.288-9.5586-9.5586-9.5586zm0 1.3223c4.5557 1e-6 8.2344 3.6807 8.2344 8.2363 0 4.5557-3.6787 8.2344-8.2344 8.2344-4.5557-1e-6-8.2344-3.6787-8.2344-8.2344 0-4.5557 3.6787-8.2363 8.2344-8.2363z" style="color-rendering:auto;color:#000000;dominant-baseline:auto;fill:url(#linearGradient985);font-feature-settings:normal;font-variant-alternates:normal;font-variant-caps:normal;font-variant-ligatures:normal;font-variant-numeric:normal;font-variant-position:normal;image-rendering:auto;isolation:auto;mix-blend-mode:normal;shape-padding:0;shape-rendering:auto;solid-color:#000000;stroke-width:.26458;stroke:url(#linearGradient1259);text-decoration-color:#000000;text-decoration-line:none;text-decoration-style:solid;text-indent:0;text-orientation:mixed;text-transform:none;white-space:normal"/>
    <g style="fill:#206582;font-feature-settings:normal;font-variant-caps:normal;font-variant-ligatures:normal;font-variant-numeric:normal;stroke-width:.26458;stroke:url(#linearGradient1259)" aria-label="5">
      <path d="m121.32 74.804.65319-6.0689h6.4658v1.7363h-4.7956l-.33072 2.8773q.83509-.47956 1.8852-.47956 1.7198 0 2.6706 1.0997.95911 1.0997.95911 2.96 0 1.8355-1.0583 2.927-1.0583 1.0831-2.9022 1.0831-1.6536 0-2.745-.93431-1.0831-.94258-1.1741-2.4805h1.943q.11575.87643.62838 1.3477.51263.46302 1.3394.46302.92605 0 1.4387-.66146.52089-.66146.52089-1.8025 0-1.0997-.5705-1.7363-.57051-.64492-1.571-.64492-.5457 0-.92604.14883-.38034.14056-.82682.56224z" style="fill:#206582;font-feature-settings:normal;font-variant-caps:normal;font-variant-ligatures:normal;font-variant-numeric:normal;stroke-width:.26458;stroke:url(#linearGradient1259)"/>
    </g>
    <path d="m74.996 93.213c-5.2706 0-9.5586 4.286-9.5586 9.5566 1e-6 5.2706 4.288 9.5586 9.5586 9.5586 5.2706 0 9.5566-4.288 9.5566-9.5586 0-5.2706-4.286-9.5566-9.5566-9.5566zm0 1.3223c4.5557 0 8.2344 3.6787 8.2344 8.2344-1e-6 4.5557-3.6787 8.2344-8.2344 8.2344s-8.2344-3.6787-8.2344-8.2344c0-4.5557 3.6787-8.2344 8.2344-8.2344z" style="color-rendering:auto;color:#000000;dominant-baseline:auto;fill:url(#linearGradient985);font-feature-settings:normal;font-variant-alternates:normal;font-variant-caps:normal;font-variant-ligatures:normal;font-variant-numeric:normal;font-variant-position:normal;image-rendering:auto;isolation:auto;mix-blend-mode:normal;shape-padding:0;shape-rendering:auto;solid-color:#000000;stroke-width:.26458;stroke:url(#linearGradient1259);text-decoration-color:#000000;text-decoration-line:none;text-decoration-style:solid;text-indent:0;text-orientation:mixed;text-transform:none;white-space:normal"/>
    <g style="fill:#206582;font-feature-settings:normal;font-variant-caps:normal;font-variant-ligatures:normal;font-variant-numeric:normal;stroke-width:.26458;stroke:url(#linearGradient1259)" aria-label="4">
      <path d="m77.881 104.5h1.4965v1.6123h-1.4965v2.6789h-2.0092v-2.6789h-5.2007l-.05788-1.2237 5.1924-8.1359h2.0753zm-5.1594 0h3.1502v-5.0271l-.14883.26458z" style="fill:#206582;font-feature-settings:normal;font-variant-caps:normal;font-variant-ligatures:normal;font-variant-numeric:normal;stroke-width:.26458;stroke:url(#linearGradient1259)"/>
    </g>
    <path d="m48.646 121.07c-5.2706 0-9.5586 4.286-9.5586 9.5566s4.288 9.5586 9.5586 9.5586c5.2706 0 9.5566-4.288 9.5566-9.5586-1e-6-5.2706-4.286-9.5566-9.5566-9.5566zm0 1.3223c4.5557 0 8.2344 3.6787 8.2344 8.2344 0 4.5557-3.6787 8.2344-8.2344 8.2344-4.5557 0-8.2363-3.6787-8.2363-8.2344 1e-6-4.5557 3.6807-8.2344 8.2363-8.2344z" style="color-rendering:auto;color:#000000;dominant-baseline:auto;fill:url(#linearGradient985);font-feature-settings:normal;font-variant-alternates:normal;font-variant-caps:normal;font-variant-ligatures:normal;font-variant-numeric:normal;font-variant-position:normal;image-rendering:auto;isolation:auto;mix-blend-mode:normal;shape-padding:0;shape-rendering:auto;solid-color:#000000;stroke-width:.26458;stroke:url(#linearGradient1259);text-decoration-color:#000000;text-decoration-line:none;text-decoration-style:solid;text-indent:0;text-orientation:mixed;text-transform:none;white-space:normal"/>
    <g style="fill:#206582;font-feature-settings:normal;font-variant-caps:normal;font-variant-ligatures:normal;font-variant-numeric:normal;stroke-width:.26458;stroke:url(#linearGradient1259)" aria-label="3">
      <path d="m47.223 129.71h1.2237q.92604-.008 1.4635-.47956.5457-.47129.5457-1.3643 0-.8599-.45475-1.3312-.44648-.47956-1.3725-.47956-.81029 0-1.3312.47129-.5209.46302-.5209 1.2154h-2.0092q0-.92604.48783-1.6867.49609-.76068 1.3725-1.1824.8847-.42995 1.9761-.42995 1.8025 0 2.8277.90951 1.0335.90124 1.0335 2.5135 0 .81029-.5209 1.5296-.51263.71107-1.3312 1.0749.99219.339 1.5048 1.0666.5209.72761.5209 1.7363 0 1.6206-1.1162 2.5797-1.1079.95911-2.9187.95911-1.7363 0-2.8443-.92604t-1.1079-2.4639h2.0092q0 .79375.52917 1.2898.53744.4961 1.4387.4961.93431 0 1.4717-.4961.53744-.49609.53744-1.4387 0-.95084-.56224-1.4635-.56224-.51263-1.6702-.51263h-1.1824z" style="fill:#206582;font-feature-settings:normal;font-variant-caps:normal;font-variant-ligatures:normal;font-variant-numeric:normal;stroke-width:.26458;stroke:url(#linearGradient1259)"/>
    </g>
    <path d="m28.809 149.67c-5.2706 0-9.5566 4.286-9.5566 9.5566 1e-6 5.2706 4.286 9.5586 9.5566 9.5586 5.2706 0 9.5586-4.288 9.5586-9.5586-1e-6-5.2706-4.288-9.5566-9.5586-9.5566zm0 1.3223c4.5557 0 8.2344 3.6787 8.2344 8.2344-1e-6 4.5557-3.6787 8.2344-8.2344 8.2344s-8.2344-3.6787-8.2344-8.2344c0-4.5557 3.6787-8.2344 8.2344-8.2344z" style="color-rendering:auto;color:#000000;dominant-baseline:auto;fill:url(#linearGradient985);font-feature-settings:normal;font-variant-alternates:normal;font-variant-caps:normal;font-variant-ligatures:normal;font-variant-numeric:normal;font-variant-position:normal;image-rendering:auto;isolation:auto;mix-blend-mode:normal;shape-padding:0;shape-rendering:auto;solid-color:#000000;stroke-width:.26458;stroke:url(#linearGradient1259);text-decoration-color:#000000;text-decoration-line:none;text-decoration-style:solid;text-indent:0;text-orientation:mixed;text-transform:none;white-space:normal"/>
    <g style="fill:#206582;font-feature-settings:normal;font-variant-caps:normal;font-variant-ligatures:normal;font-variant-numeric:normal;stroke-width:.26458;stroke:url(#linearGradient1259)" aria-label="2">
      <path d="m32.972 165.32h-8.0946v-1.3808l4.0101-4.3739q.86816-.96738 1.232-1.6123.37207-.65319.37207-1.3064 0-.8599-.48783-1.3891-.47956-.52917-1.2981-.52917-.97565 0-1.5131.59531t-.53744 1.6288h-2.0092q0-1.0997.49609-1.9761.50436-.8847 1.4304-1.3725.93431-.48783 2.1497-.48783 1.7529 0 2.7616.88471 1.017.87643 1.017 2.4308 0 .90124-.51263 1.8934-.50436.98392-1.6619 2.2407l-2.9435 3.1502h5.5893z" style="fill:#206582;font-feature-settings:normal;font-variant-caps:normal;font-variant-ligatures:normal;font-variant-numeric:normal;stroke-width:.26458;stroke:url(#linearGradient1259)"/>
    </g>
    <path d="m14.428 179.82c-5.2706 0-9.5566 4.286-9.5566 9.5566-5.1e-6 5.2706 4.286 9.5586 9.5566 9.5586 5.2706 0 9.5586-4.288 9.5586-9.5586-1e-6-5.2706-4.288-9.5566-9.5586-9.5566zm0 1.3223c4.5557 0 8.2344 3.6787 8.2344 8.2344 5e-6 4.5557-3.6787 8.2344-8.2344 8.2344-4.5557 0-8.2344-3.6787-8.2344-8.2344 7e-7-4.5557 3.6787-8.2344 8.2344-8.2344z" style="color-rendering:auto;color:#000000;dominant-baseline:auto;fill:url(#linearGradient985);font-feature-settings:normal;font-variant-alternates:normal;font-variant-caps:normal;font-variant-ligatures:normal;font-variant-numeric:normal;font-variant-position:normal;image-rendering:auto;isolation:auto;mix-blend-mode:normal;shape-padding:0;shape-rendering:auto;solid-color:#000000;stroke-width:.26458;stroke:url(#linearGradient1259);text-decoration-color:#000000;text-decoration-line:none;text-decoration-style:solid;text-indent:0;text-orientation:mixed;text-transform:none;white-space:normal"/>
    <g style="fill:#206582;font-feature-settings:normal;font-variant-caps:normal;font-variant-ligatures:normal;font-variant-numeric:normal;stroke-width:.26458;stroke:url(#linearGradient1259)" aria-label="1">
      <path d="m16.904 195.42h-2.0009v-9.6656l-2.9518 1.0087v-1.695l4.6964-1.7281h.25632z" style="fill:#206582;font-feature-settings:normal;font-variant-caps:normal;font-variant-ligatures:normal;font-variant-numeric:normal;stroke-width:.26458;stroke:url(#linearGradient1259)"/>
    </g>
    <path d="m43.645 179.62c-5.2706 0-9.5566 4.288-9.5566 9.5586s4.286 9.5566 9.5566 9.5566c5.2706 0 9.5566-4.286 9.5566-9.5566-1e-6-5.2706-4.286-9.5586-9.5566-9.5586zm0 1.3242c4.5557 0 8.2344 3.6787 8.2344 8.2344 0 4.5557-3.6787 8.2344-8.2344 8.2344s-8.2344-3.6787-8.2344-8.2344c1e-6-4.5557 3.6787-8.2344 8.2344-8.2344z" style="color-rendering:auto;color:#000000;dominant-baseline:auto;fill:url(#linearGradient985);font-feature-settings:normal;font-variant-alternates:normal;font-variant-caps:normal;font-variant-ligatures:normal;font-variant-numeric:normal;font-variant-position:normal;image-rendering:auto;isolation:auto;mix-blend-mode:normal;shape-padding:0;shape-rendering:auto;solid-color:#000000;stroke-width:.26458;stroke:url(#linearGradient1259);text-decoration-color:#000000;text-decoration-line:none;text-decoration-style:solid;text-indent:0;text-orientation:mixed;text-transform:none;white-space:normal"/>
    <g style="fill:#206582;font-feature-settings:normal;font-variant-caps:normal;font-variant-ligatures:normal;font-variant-numeric:normal;stroke-width:.26458;stroke:url(#linearGradient1259)" aria-label="0">
      <path d="m47.584 190.13q0 2.5962-.97565 3.9191-.96738 1.3146-2.9518 1.3146-1.9513 0-2.9435-1.2816-.98392-1.2898-1.0087-3.8116v-2.0836q0-2.5962.96738-3.8943.97565-1.2981 2.9683-1.2981 1.9761 0 2.9435 1.265.97565 1.265 1.0005 3.7868zm-2.0092-2.249q0-1.695-.46302-2.4805-.46302-.79375-1.4717-.79375-.98392 0-1.4469.75241-.46302.74414-.48782 2.3316v2.7285q0 1.6867.47129 2.5135.47129.82682 1.48.82682.96738 0 1.4304-.76068.46302-.76894.48783-2.3978z" style="fill:#206582;font-feature-settings:normal;font-variant-caps:normal;font-variant-ligatures:normal;font-variant-numeric:normal;stroke-width:.26458;stroke:url(#linearGradient1259)"/>
    </g>
    <path d="m64.146 149.81c-5.2706 0-9.5586 4.288-9.5586 9.5586s4.288 9.5566 9.5586 9.5566c5.2706 0 9.5566-4.286 9.5566-9.5566-1e-6-5.2706-4.286-9.5586-9.5566-9.5586zm0 1.3242c4.5557 0 8.2344 3.6787 8.2344 8.2344 0 4.5557-3.6787 8.2344-8.2344 8.2344-4.5557 0-8.2363-3.6787-8.2363-8.2344 1e-6-4.5557 3.6807-8.2344 8.2363-8.2344z" style="color-rendering:auto;color:#000000;dominant-baseline:auto;fill:url(#linearGradient985);font-feature-settings:normal;font-variant-alternates:normal;font-variant-caps:normal;font-variant-ligatures:normal;font-variant-numeric:normal;font-variant-position:normal;image-rendering:auto;isolation:auto;mix-blend-mode:normal;shape-padding:0;shape-rendering:auto;solid-color:#000000;stroke-width:.26458;stroke:url(#linearGradient1259);text-decoration-color:#000000;text-decoration-line:none;text-decoration-style:solid;text-indent:0;text-orientation:mixed;text-transform:none;white-space:normal"/>
    <g style="fill:#206582;font-feature-settings:normal;font-variant-caps:normal;font-variant-ligatures:normal;font-variant-numeric:normal;stroke-width:.26458;stroke:url(#linearGradient1259)" aria-label="1">
      <path d="m66.622 165.41h-2.0009v-9.6656l-2.9518 1.0087v-1.695l4.6964-1.7281h.25632z" style="fill:#206582;font-feature-settings:normal;font-variant-caps:normal;font-variant-ligatures:normal;font-variant-numeric:normal;stroke-width:.26458;stroke:url(#linearGradient1259)"/>
    </g>
    <g style="fill:#206582;font-feature-settings:normal;font-variant-caps:normal;font-variant-ligatures:normal;font-variant-numeric:normal;stroke-width:.26458;stroke:url(#linearGradient1259)" aria-label="3">
      <path d="m172.18 101.65h1.2237q.92605-.008 1.4635-.47956.5457-.47129.5457-1.3643 0-.8599-.45475-1.3312-.44648-.47956-1.3725-.47956-.81028 0-1.3312.47129-.5209.46302-.5209 1.2154h-2.0092q0-.92604.48783-1.6867.49609-.76068 1.3725-1.1824.8847-.42995 1.9761-.42995 1.8025 0 2.8277.90951 1.0335.90124 1.0335 2.5135 0 .81029-.5209 1.5296-.51263.71106-1.3312 1.0749.99219.33899 1.5048 1.0666.5209.7276.5209 1.7363 0 1.6206-1.1162 2.5797-1.1079.95912-2.9187.95912-1.7363 0-2.8443-.92605-1.1079-.92604-1.1079-2.4639h2.0092q0 .79375.52916 1.2898.53744.49609 1.4387.49609.93431 0 1.4718-.49609.53743-.4961.53743-1.4387 0-.95084-.56224-1.4635-.56223-.51263-1.6702-.51263h-1.1824z" style="fill:#206582;font-feature-settings:normal;font-variant-caps:normal;font-variant-ligatures:normal;font-variant-numeric:normal;stroke-width:.26458;stroke:url(#linearGradient1259)"/>
    </g>
    <path d="m153.76 121.61c-5.2706 0-9.5566 4.286-9.5566 9.5566 0 5.2706 4.286 9.5586 9.5566 9.5586 5.2706 0 9.5586-4.288 9.5586-9.5586-1e-5-5.2706-4.288-9.5566-9.5586-9.5566zm0 1.3223c4.5557 0 8.2344 3.6787 8.2344 8.2344 0 4.5557-3.6787 8.2363-8.2344 8.2363-4.5557 0-8.2344-3.6807-8.2344-8.2363 0-4.5557 3.6787-8.2344 8.2344-8.2344z" style="color-rendering:auto;color:#000000;dominant-baseline:auto;fill:url(#linearGradient985);font-feature-settings:normal;font-variant-alternates:normal;font-variant-caps:normal;font-variant-ligatures:normal;font-variant-numeric:normal;font-variant-position:normal;image-rendering:auto;isolation:auto;mix-blend-mode:normal;shape-padding:0;shape-rendering:auto;solid-color:#000000;stroke-width:.26458;stroke:url(#linearGradient1259);text-decoration-color:#000000;text-decoration-line:none;text-decoration-style:solid;text-indent:0;text-orientation:mixed;text-transform:none;white-space:normal"/>
    <g style="fill:#206582;font-feature-settings:normal;font-variant-caps:normal;font-variant-ligatures:normal;font-variant-numeric:normal;stroke-width:.26458;stroke:url(#linearGradient1259)" aria-label="2">
      <path d="m157.93 137.27h-8.0946v-1.3808l4.0101-4.3739q.86817-.96739 1.232-1.6123.37207-.65319.37207-1.3064 0-.85989-.48783-1.3891-.47956-.52917-1.2981-.52917-.97565 0-1.5131.59531-.53743.59532-.53743 1.6288h-2.0092q0-1.0997.49609-1.9761.50437-.8847 1.4304-1.3725.93431-.48782 2.1497-.48782 1.7529 0 2.7616.8847 1.017.87643 1.017 2.4309 0 .90123-.51263 1.8934-.50437.98392-1.6619 2.2407l-2.9435 3.1502h5.5893z" style="fill:#206582;font-feature-settings:normal;font-variant-caps:normal;font-variant-ligatures:normal;font-variant-numeric:normal;stroke-width:.26458;stroke:url(#linearGradient1259)"/>
    </g>
    <path d="m139.38 151.77c-5.2706 1e-5-9.5566 4.288-9.5566 9.5586s4.286 9.5566 9.5566 9.5566 9.5586-4.286 9.5586-9.5566-4.288-9.5586-9.5586-9.5586zm0 1.3242c4.5557 0 8.2344 3.6787 8.2344 8.2344s-3.6787 8.2344-8.2344 8.2344c-4.5557 0-8.2344-3.6787-8.2344-8.2344s3.6787-8.2344 8.2344-8.2344z" style="color-rendering:auto;color:#000000;dominant-baseline:auto;fill:url(#linearGradient985);font-feature-settings:normal;font-variant-alternates:normal;font-variant-caps:normal;font-variant-ligatures:normal;font-variant-numeric:normal;font-variant-position:normal;image-rendering:auto;isolation:auto;mix-blend-mode:normal;shape-padding:0;shape-rendering:auto;solid-color:#000000;stroke-width:.26458;stroke:url(#linearGradient1259);text-decoration-color:#000000;text-decoration-line:none;text-decoration-style:solid;text-indent:0;text-orientation:mixed;text-transform:none;white-space:normal"/>
    <g style="fill:#206582;font-feature-settings:normal;font-variant-caps:normal;font-variant-ligatures:normal;font-variant-numeric:normal;stroke-width:.26458;stroke:url(#linearGradient1259)" aria-label="1">
      <path d="m141.86 167.36h-2.0009v-9.6656l-2.9518 1.0087v-1.695l4.6964-1.7281h.25632z" style="fill:#206582;font-feature-settings:normal;font-variant-caps:normal;font-variant-ligatures:normal;font-variant-numeric:normal;stroke-width:.26458;stroke:url(#linearGradient1259)"/>
    </g>
    <path d="m168.6 151.57c-5.2706 0-9.5566 4.286-9.5566 9.5566s4.286 9.5586 9.5566 9.5586 9.5586-4.288 9.5586-9.5586-4.288-9.5566-9.5586-9.5566zm0 1.3223c4.5557 1e-5 8.2344 3.6787 8.2344 8.2344s-3.6787 8.2344-8.2344 8.2344c-4.5557-1e-5-8.2344-3.6787-8.2344-8.2344 1e-5-4.5557 3.6787-8.2344 8.2344-8.2344z" style="color-rendering:auto;color:#000000;dominant-baseline:auto;fill:url(#linearGradient985);font-feature-settings:normal;font-variant-alternates:normal;font-variant-caps:normal;font-variant-ligatures:normal;font-variant-numeric:normal;font-variant-position:normal;image-rendering:auto;isolation:auto;mix-blend-mode:normal;shape-padding:0;shape-rendering:auto;solid-color:#000000;stroke-width:.26458;stroke:url(#linearGradient1259);text-decoration-color:#000000;text-decoration-line:none;text-decoration-style:solid;text-indent:0;text-orientation:mixed;text-transform:none;white-space:normal"/>
    <g style="fill:#206582;font-feature-settings:normal;font-variant-caps:normal;font-variant-ligatures:normal;font-variant-numeric:normal;stroke-width:.26458;stroke:url(#linearGradient1259)" aria-label="0">
      <path d="m172.54 162.08q0 2.5962-.97565 3.9191-.96738 1.3146-2.9518 1.3146-1.9513 0-2.9435-1.2816-.98392-1.2898-1.0087-3.8116v-2.0836q0-2.5962.96738-3.8943.97566-1.2981 2.9683-1.2981 1.9761 0 2.9435 1.265.97565 1.265 1.0004 3.7868zm-2.0092-2.249q0-1.695-.46302-2.4805-.46302-.79375-1.4717-.79375-.98392 0-1.4469.75241-.46302.74414-.48783 2.3316v2.7285q0 1.6867.47129 2.5135t1.48.82682q.96738 0 1.4304-.76067.46302-.76895.48782-2.3978z" style="fill:#206582;font-feature-settings:normal;font-variant-caps:normal;font-variant-ligatures:normal;font-variant-numeric:normal;stroke-width:.26458;stroke:url(#linearGradient1259)"/>
    </g>
    <path d="m189.1 121.76c-5.2706 0-9.5586 4.286-9.5586 9.5566s4.288 9.5586 9.5586 9.5586c5.2706 0 9.5566-4.288 9.5566-9.5586 0-5.2706-4.286-9.5566-9.5566-9.5566zm0 1.3223c4.5557-1e-5 8.2344 3.6787 8.2344 8.2344 0 4.5557-3.6787 8.2344-8.2344 8.2344-4.5557 0-8.2344-3.6787-8.2344-8.2344 0-4.5557 3.6787-8.2344 8.2344-8.2344z" style="color-rendering:auto;color:#000000;dominant-baseline:auto;fill:url(#linearGradient985);font-feature-settings:normal;font-variant-alternates:normal;font-variant-caps:normal;font-variant-ligatures:normal;font-variant-numeric:normal;font-variant-position:normal;image-rendering:auto;isolation:auto;mix-blend-mode:normal;shape-padding:0;shape-rendering:auto;solid-color:#000000;stroke-width:.26458;stroke:url(#linearGradient1259);text-decoration-color:#000000;text-decoration-line:none;text-decoration-style:solid;text-indent:0;text-orientation:mixed;text-transform:none;white-space:normal"/>
    <g style="fill:#206582;font-feature-settings:normal;font-variant-caps:normal;font-variant-ligatures:normal;font-variant-numeric:normal;stroke-width:.26458;stroke:url(#linearGradient1259)" aria-label="1">
      <path d="m191.58 137.35h-2.0009v-9.6656l-2.9518 1.0087v-1.695l4.6964-1.7281h.25632z" style="fill:#206582;font-feature-settings:normal;font-variant-caps:normal;font-variant-ligatures:normal;font-variant-numeric:normal;stroke-width:.26458;stroke:url(#linearGradient1259)"/>
    </g>
    <path d="m101.17 120.78c-5.2706 0-9.5566 4.286-9.5566 9.5566-5e-6 5.2706 4.286 9.5586 9.5566 9.5586 5.2706 0 9.5566-4.288 9.5566-9.5586 0-5.2706-4.286-9.5566-9.5566-9.5566zm0 1.3223c4.5557 0 8.2344 3.6787 8.2344 8.2344 1e-5 4.5557-3.6787 8.2344-8.2344 8.2344-4.5557 0-8.2344-3.6787-8.2344-8.2344 0-4.5557 3.6787-8.2344 8.2344-8.2344z" style="color-rendering:auto;color:#000000;dominant-baseline:auto;fill:url(#linearGradient985);font-feature-settings:normal;font-variant-alternates:normal;font-variant-caps:normal;font-variant-ligatures:normal;font-variant-numeric:normal;font-variant-position:normal;image-rendering:auto;isolation:auto;mix-blend-mode:normal;shape-padding:0;shape-rendering:auto;solid-color:#000000;stroke-width:.26458;stroke:url(#linearGradient1259);text-decoration-color:#000000;text-decoration-line:none;text-decoration-style:solid;text-indent:0;text-orientation:mixed;text-transform:none;white-space:normal"/>
    <g style="fill:#206582;font-feature-settings:normal;font-variant-caps:normal;font-variant-ligatures:normal;font-variant-numeric:normal;stroke-width:.26458;stroke:url(#linearGradient1259)" aria-label="2">
      <path d="m105.33 136.43h-8.0946v-1.3808l4.0101-4.3739q.86816-.96739 1.232-1.6123.37207-.65319.37207-1.3064 0-.85989-.48783-1.3891-.47956-.52917-1.2981-.52917-.97565 0-1.5131.59532-.53743.59531-.53743 1.6288h-2.0092q0-1.0997.49609-1.9761.50436-.8847 1.4304-1.3725.93431-.48782 2.1497-.48782 1.7529 0 2.7616.8847 1.017.87643 1.017 2.4309 0 .90124-.51263 1.8934-.50437.98392-1.6619 2.2407l-2.9435 3.1502h5.5893z" style="fill:#206582;font-feature-settings:normal;font-variant-caps:normal;font-variant-ligatures:normal;font-variant-numeric:normal;stroke-width:.26458;stroke:url(#linearGradient1259)"/>
    </g>
    <path d="m86.785 150.93c-5.2706 0-9.5566 4.286-9.5566 9.5566 0 5.2706 4.286 9.5586 9.5566 9.5586 5.2706 0 9.5566-4.288 9.5566-9.5586-1e-6-5.2706-4.286-9.5566-9.5566-9.5566zm0 1.3223c4.5557 0 8.2344 3.6787 8.2344 8.2344 0 4.5557-3.6787 8.2344-8.2344 8.2344s-8.2344-3.6787-8.2344-8.2344c1e-6-4.5557 3.6787-8.2344 8.2344-8.2344z" style="color-rendering:auto;color:#000000;dominant-baseline:auto;fill:url(#linearGradient985);font-feature-settings:normal;font-variant-alternates:normal;font-variant-caps:normal;font-variant-ligatures:normal;font-variant-numeric:normal;font-variant-position:normal;image-rendering:auto;isolation:auto;mix-blend-mode:normal;shape-padding:0;shape-rendering:auto;solid-color:#000000;stroke-width:.26458;stroke:url(#linearGradient1259);text-decoration-color:#000000;text-decoration-line:none;text-decoration-style:solid;text-indent:0;text-orientation:mixed;text-transform:none;white-space:normal"/>
    <g style="fill:#206582;font-feature-settings:normal;font-variant-caps:normal;font-variant-ligatures:normal;font-variant-numeric:normal;stroke-width:.26458;stroke:url(#linearGradient1259)" aria-label="1">
      <path d="m89.262 166.53h-2.0009v-9.6656l-2.9518 1.0087v-1.695l4.6964-1.7281h.25632z" style="fill:#206582;font-feature-settings:normal;font-variant-caps:normal;font-variant-ligatures:normal;font-variant-numeric:normal;stroke-width:.26458;stroke:url(#linearGradient1259)"/>
    </g>
    <path d="m116 150.73c-5.2706 0-9.5586 4.288-9.5586 9.5586-1e-5 5.2706 4.288 9.5566 9.5586 9.5566 5.2706 0 9.5566-4.286 9.5566-9.5566 0-5.2706-4.286-9.5586-9.5566-9.5586zm0 1.3242c4.5557 0 8.2344 3.6787 8.2344 8.2344 0 4.5557-3.6787 8.2344-8.2344 8.2344-4.5557 0-8.2344-3.6787-8.2344-8.2344 0-4.5557 3.6787-8.2344 8.2344-8.2344z" style="color-rendering:auto;color:#000000;dominant-baseline:auto;fill:url(#linearGradient985);font-feature-settings:normal;font-variant-alternates:normal;font-variant-caps:normal;font-variant-ligatures:normal;font-variant-numeric:normal;font-variant-position:normal;image-rendering:auto;isolation:auto;mix-blend-mode:normal;shape-padding:0;shape-rendering:auto;solid-color:#000000;stroke-width:.26458;stroke:url(#linearGradient1259);text-decoration-color:#000000;text-decoration-line:none;text-decoration-style:solid;text-indent:0;text-orientation:mixed;text-transform:none;white-space:normal"/>
    <g style="fill:#206582;font-feature-settings:normal;font-variant-caps:normal;font-variant-ligatures:normal;font-variant-numeric:normal;stroke-width:.26458;stroke:url(#linearGradient1259)" aria-label="0">
      <path d="m119.94 161.24q0 2.5962-.97565 3.9191-.96739 1.3146-2.9518 1.3146-1.9513 0-2.9435-1.2816-.98392-1.2898-1.0087-3.8117v-2.0836q0-2.5962.96739-3.8943.97565-1.2981 2.9683-1.2981 1.9761 0 2.9435 1.265.97565 1.265 1.0005 3.7868zm-2.0092-2.249q0-1.695-.46302-2.4805-.46302-.79375-1.4718-.79375-.98392 0-1.4469.7524-.46302.74414-.48782 2.3316v2.7285q0 1.6867.47129 2.5135.47128.82682 1.48.82682.96738 0 1.4304-.76067.46302-.76895.48783-2.3978z" style="fill:#206582;font-feature-settings:normal;font-variant-caps:normal;font-variant-ligatures:normal;font-variant-numeric:normal;stroke-width:.26458;stroke:url(#linearGradient1259)"/>
    </g>
  </g>
</svg>
