<svg width="8in" height="8in" version="1.1" viewBox="0 0 203.2 203.2" xmlns="http://www.w3.org/2000/svg" xmlns:xlink="http://www.w3.org/1999/xlink">
  <defs>
    <linearGradient id="linearGradient1020">
      <stop style="stop-color:#212120" offset="0"/>
    </linearGradient>
    <linearGradient id="linearGradient976">
      <stop style="stop-color:#095473" offset="0"/>
    </linearGradient>
    <linearGradient id="linearGradient1052">
      <stop style="stop-color:#363534" offset="0"/>
    </linearGradient>
    <linearGradient id="linearGradient1042" gradientTransform="translate(-.23244 73.222)">
      <stop style="stop-color:#494847" offset="0"/>
    </linearGradient>
    <linearGradient id="linearGradient985">
      <stop style="stop-color:#797776" offset="0"/>
    </linearGradient>
    <linearGradient id="linearGradient979" gradientTransform="matrix(-3.7795 0 0 3.7795 514.07 -1764.8)">
      <stop style="stop-color:#bf5d28" offset="0"/>
    </linearGradient>
    <linearGradient id="linearGradient939" x1="29.274" x2="184.46" y1="96.083" y2="96.083" gradientTransform="translate(0 -11.974)" gradientUnits="userSpaceOnUse" xlink:href="#linearGradient979"/>
    <linearGradient id="linearGradient978" x1="30.03" x2="182.96" y1="123.89" y2="123.89" gradientUnits="userSpaceOnUse" xlink:href="#linearGradient976"/>
    <linearGradient id="linearGradient1022" x1="89.84" x2="110.02" y1="152.81" y2="152.81" gradientUnits="userSpaceOnUse" xlink:href="#linearGradient1020"/>
  </defs>
  <g style="display:none">
    <rect x="-10.784" y="-8.8778" width="227.06" height="221.06" style="fill:#fff;stroke-width:2.54;stroke:#fff"/>
  </g>
  <g>
    <path d="m182.62 86.909-152.22 72.313.54492 1.1465 152.22-72.311z" style="color-rendering:auto;color:#000000;dominant-baseline:auto;fill:url(#linearGradient985);font-feature-settings:normal;font-variant-alternates:normal;font-variant-caps:normal;font-variant-ligatures:normal;font-variant-numeric:normal;font-variant-position:normal;image-rendering:auto;isolation:auto;mix-blend-mode:normal;shape-padding:0;shape-rendering:auto;solid-color:#000000;stroke-width:.26458;stroke:url(#linearGradient1020);text-decoration-color:#000000;text-decoration-line:none;text-decoration-style:solid;text-indent:0;text-orientation:mixed;text-transform:none;white-space:normal"/>
    <path d="m30.162 123.23v1.3223h152.66v-1.3223z" style="color-rendering:auto;color:#000000;dominant-baseline:auto;fill:url(#linearGradient978);font-feature-settings:normal;font-variant-alternates:normal;font-variant-caps:normal;font-variant-ligatures:normal;font-variant-numeric:normal;font-variant-position:normal;image-rendering:auto;isolation:auto;mix-blend-mode:normal;shape-padding:0;shape-rendering:auto;solid-color:#000000;stroke-width:.26458;stroke:url(#linearGradient1052);text-decoration-color:#000000;text-decoration-line:none;text-decoration-style:solid;text-indent:0;text-orientation:mixed;text-transform:none;white-space:normal"/>
    <path d="m29.406 7.1533v153.91h154.92v-153.91zm2.541 2.541h149.84v148.83h-149.84z" style="color-rendering:auto;color:#000000;dominant-baseline:auto;fill:url(#linearGradient939);font-feature-settings:normal;font-variant-alternates:normal;font-variant-caps:normal;font-variant-ligatures:normal;font-variant-numeric:normal;font-variant-position:normal;image-rendering:auto;isolation:auto;mix-blend-mode:normal;shape-padding:0;shape-rendering:auto;solid-color:#000000;stroke-width:.26458;stroke:url(#linearGradient1020);text-decoration-color:#000000;text-decoration-line:none;text-decoration-style:solid;text-indent:0;text-orientation:mixed;text-transform:none;white-space:normal"/>
    <path d="m28.904 164.7v7.293h2.5391v-7.293z" style="color-rendering:auto;color:#000000;dominant-baseline:auto;fill:url(#linearGradient979);font-feature-settings:normal;font-variant-alternates:normal;font-variant-caps:normal;font-variant-ligatures:normal;font-variant-numeric:normal;font-variant-position:normal;image-rendering:auto;isolation:auto;mix-blend-mode:normal;shape-padding:0;shape-rendering:auto;solid-color:#000000;stroke-width:.26458;stroke:url(#linearGradient1020);text-decoration-color:#000000;text-decoration-line:none;text-decoration-style:solid;text-indent:0;text-orientation:mixed;text-transform:none;white-space:normal"/>
    <path d="m41.549 164.7v7.293h2.541v-7.293z" style="color-rendering:auto;color:#000000;dominant-baseline:auto;fill:url(#linearGradient979);font-feature-settings:normal;font-variant-alternates:normal;font-variant-caps:normal;font-variant-ligatures:normal;font-variant-numeric:normal;font-variant-position:normal;image-rendering:auto;isolation:auto;mix-blend-mode:normal;shape-padding:0;shape-rendering:auto;solid-color:#000000;stroke-width:.26458;stroke:url(#linearGradient1020);text-decoration-color:#000000;text-decoration-line:none;text-decoration-style:solid;text-indent:0;text-orientation:mixed;text-transform:none;white-space:normal"/>
    <path d="m54.195 164.7v7.293h2.5391v-7.293z" style="color-rendering:auto;color:#000000;dominant-baseline:auto;fill:url(#linearGradient979);font-feature-settings:normal;font-variant-alternates:normal;font-variant-caps:normal;font-variant-ligatures:normal;font-variant-numeric:normal;font-variant-position:normal;image-rendering:auto;isolation:auto;mix-blend-mode:normal;shape-padding:0;shape-rendering:auto;solid-color:#000000;stroke-width:.26458;stroke:url(#linearGradient1020);text-decoration-color:#000000;text-decoration-line:none;text-decoration-style:solid;text-indent:0;text-orientation:mixed;text-transform:none;white-space:normal"/>
    <path d="m66.842 164.7v7.293h2.5391v-7.293z" style="color-rendering:auto;color:#000000;dominant-baseline:auto;fill:url(#linearGradient979);font-feature-settings:normal;font-variant-alternates:normal;font-variant-caps:normal;font-variant-ligatures:normal;font-variant-numeric:normal;font-variant-position:normal;image-rendering:auto;isolation:auto;mix-blend-mode:normal;shape-padding:0;shape-rendering:auto;solid-color:#000000;stroke-width:.26458;stroke:url(#linearGradient1020);text-decoration-color:#000000;text-decoration-line:none;text-decoration-style:solid;text-indent:0;text-orientation:mixed;text-transform:none;white-space:normal"/>
    <path d="m79.486 164.7v7.293h2.541v-7.293z" style="color-rendering:auto;color:#000000;dominant-baseline:auto;fill:url(#linearGradient979);font-feature-settings:normal;font-variant-alternates:normal;font-variant-caps:normal;font-variant-ligatures:normal;font-variant-numeric:normal;font-variant-position:normal;image-rendering:auto;isolation:auto;mix-blend-mode:normal;shape-padding:0;shape-rendering:auto;solid-color:#000000;stroke-width:.26458;stroke:url(#linearGradient1020);text-decoration-color:#000000;text-decoration-line:none;text-decoration-style:solid;text-indent:0;text-orientation:mixed;text-transform:none;white-space:normal"/>
    <path d="m92.133 164.7v7.293h2.5391v-7.293z" style="color-rendering:auto;color:#000000;dominant-baseline:auto;fill:url(#linearGradient979);font-feature-settings:normal;font-variant-alternates:normal;font-variant-caps:normal;font-variant-ligatures:normal;font-variant-numeric:normal;font-variant-position:normal;image-rendering:auto;isolation:auto;mix-blend-mode:normal;shape-padding:0;shape-rendering:auto;solid-color:#000000;stroke-width:.26458;stroke:url(#linearGradient1020);text-decoration-color:#000000;text-decoration-line:none;text-decoration-style:solid;text-indent:0;text-orientation:mixed;text-transform:none;white-space:normal"/>
    <path d="m104.78 164.7v7.293h2.541v-7.293z" style="color-rendering:auto;color:#000000;dominant-baseline:auto;fill:url(#linearGradient979);font-feature-settings:normal;font-variant-alternates:normal;font-variant-caps:normal;font-variant-ligatures:normal;font-variant-numeric:normal;font-variant-position:normal;image-rendering:auto;isolation:auto;mix-blend-mode:normal;shape-padding:0;shape-rendering:auto;solid-color:#000000;stroke-width:.26458;stroke:url(#linearGradient1020);text-decoration-color:#000000;text-decoration-line:none;text-decoration-style:solid;text-indent:0;text-orientation:mixed;text-transform:none;white-space:normal"/>
    <path d="m117.42 164.7v7.293h2.5391v-7.293z" style="color-rendering:auto;color:#000000;dominant-baseline:auto;fill:url(#linearGradient979);font-feature-settings:normal;font-variant-alternates:normal;font-variant-caps:normal;font-variant-ligatures:normal;font-variant-numeric:normal;font-variant-position:normal;image-rendering:auto;isolation:auto;mix-blend-mode:normal;shape-padding:0;shape-rendering:auto;solid-color:#000000;stroke-width:.26458;stroke:url(#linearGradient1020);text-decoration-color:#000000;text-decoration-line:none;text-decoration-style:solid;text-indent:0;text-orientation:mixed;text-transform:none;white-space:normal"/>
    <path d="m130.07 164.7v7.293h2.5391v-7.293z" style="color-rendering:auto;color:#000000;dominant-baseline:auto;fill:url(#linearGradient979);font-feature-settings:normal;font-variant-alternates:normal;font-variant-caps:normal;font-variant-ligatures:normal;font-variant-numeric:normal;font-variant-position:normal;image-rendering:auto;isolation:auto;mix-blend-mode:normal;shape-padding:0;shape-rendering:auto;solid-color:#000000;stroke-width:.26458;stroke:url(#linearGradient1020);text-decoration-color:#000000;text-decoration-line:none;text-decoration-style:solid;text-indent:0;text-orientation:mixed;text-transform:none;white-space:normal"/>
    <path d="m142.71 164.7v7.293h2.541v-7.293z" style="color-rendering:auto;color:#000000;dominant-baseline:auto;fill:url(#linearGradient979);font-feature-settings:normal;font-variant-alternates:normal;font-variant-caps:normal;font-variant-ligatures:normal;font-variant-numeric:normal;font-variant-position:normal;image-rendering:auto;isolation:auto;mix-blend-mode:normal;shape-padding:0;shape-rendering:auto;solid-color:#000000;stroke-width:.26458;stroke:url(#linearGradient1020);text-decoration-color:#000000;text-decoration-line:none;text-decoration-style:solid;text-indent:0;text-orientation:mixed;text-transform:none;white-space:normal"/>
    <path d="m155.36 164.7v7.293h2.5391v-7.293z" style="color-rendering:auto;color:#000000;dominant-baseline:auto;fill:url(#linearGradient979);font-feature-settings:normal;font-variant-alternates:normal;font-variant-caps:normal;font-variant-ligatures:normal;font-variant-numeric:normal;font-variant-position:normal;image-rendering:auto;isolation:auto;mix-blend-mode:normal;shape-padding:0;shape-rendering:auto;solid-color:#000000;stroke-width:.26458;stroke:url(#linearGradient1020);text-decoration-color:#000000;text-decoration-line:none;text-decoration-style:solid;text-indent:0;text-orientation:mixed;text-transform:none;white-space:normal"/>
    <path d="m168.01 164.7v7.293h2.541v-7.293z" style="color-rendering:auto;color:#000000;dominant-baseline:auto;fill:url(#linearGradient979);font-feature-settings:normal;font-variant-alternates:normal;font-variant-caps:normal;font-variant-ligatures:normal;font-variant-numeric:normal;font-variant-position:normal;image-rendering:auto;isolation:auto;mix-blend-mode:normal;shape-padding:0;shape-rendering:auto;solid-color:#000000;stroke-width:.26458;stroke:url(#linearGradient1020);text-decoration-color:#000000;text-decoration-line:none;text-decoration-style:solid;text-indent:0;text-orientation:mixed;text-transform:none;white-space:normal"/>
    <path d="m180.65 164.7v7.293h2.5391v-7.293z" style="color-rendering:auto;color:#000000;dominant-baseline:auto;fill:url(#linearGradient979);font-feature-settings:normal;font-variant-alternates:normal;font-variant-caps:normal;font-variant-ligatures:normal;font-variant-numeric:normal;font-variant-position:normal;image-rendering:auto;isolation:auto;mix-blend-mode:normal;shape-padding:0;shape-rendering:auto;solid-color:#000000;stroke-width:.26458;stroke:url(#linearGradient1020);text-decoration-color:#000000;text-decoration-line:none;text-decoration-style:solid;text-indent:0;text-orientation:mixed;text-transform:none;white-space:normal"/>
    <path d="m18.547 159.33v2.5391h7.293v-2.5391z" style="color-rendering:auto;color:#000000;dominant-baseline:auto;fill:url(#linearGradient979);font-feature-settings:normal;font-variant-alternates:normal;font-variant-caps:normal;font-variant-ligatures:normal;font-variant-numeric:normal;font-variant-position:normal;image-rendering:auto;isolation:auto;mix-blend-mode:normal;shape-padding:0;shape-rendering:auto;solid-color:#000000;stroke-width:.26458;stroke:url(#linearGradient1020);text-decoration-color:#000000;text-decoration-line:none;text-decoration-style:solid;text-indent:0;text-orientation:mixed;text-transform:none;white-space:normal"/>
    <path d="m18.547 153.21v2.541h7.293v-2.541z" style="color-rendering:auto;color:#000000;dominant-baseline:auto;fill:url(#linearGradient979);font-feature-settings:normal;font-variant-alternates:normal;font-variant-caps:normal;font-variant-ligatures:normal;font-variant-numeric:normal;font-variant-position:normal;image-rendering:auto;isolation:auto;mix-blend-mode:normal;shape-padding:0;shape-rendering:auto;solid-color:#000000;stroke-width:.26458;stroke:url(#linearGradient1020);text-decoration-color:#000000;text-decoration-line:none;text-decoration-style:solid;text-indent:0;text-orientation:mixed;text-transform:none;white-space:normal"/>
    <path d="m18.547 147.1v2.541h7.293v-2.541z" style="color-rendering:auto;color:#000000;dominant-baseline:auto;fill:url(#linearGradient979);font-feature-settings:normal;font-variant-alternates:normal;font-variant-caps:normal;font-variant-ligatures:normal;font-variant-numeric:normal;font-variant-position:normal;image-rendering:auto;isolation:auto;mix-blend-mode:normal;shape-padding:0;shape-rendering:auto;solid-color:#000000;stroke-width:.26458;stroke:url(#linearGradient1020);text-decoration-color:#000000;text-decoration-line:none;text-decoration-style:solid;text-indent:0;text-orientation:mixed;text-transform:none;white-space:normal"/>
    <path d="m18.547 140.99v2.5391h7.293v-2.5391z" style="color-rendering:auto;color:#000000;dominant-baseline:auto;fill:url(#linearGradient979);font-feature-settings:normal;font-variant-alternates:normal;font-variant-caps:normal;font-variant-ligatures:normal;font-variant-numeric:normal;font-variant-position:normal;image-rendering:auto;isolation:auto;mix-blend-mode:normal;shape-padding:0;shape-rendering:auto;solid-color:#000000;stroke-width:.26458;stroke:url(#linearGradient1020);text-decoration-color:#000000;text-decoration-line:none;text-decoration-style:solid;text-indent:0;text-orientation:mixed;text-transform:none;white-space:normal"/>
    <path d="m18.547 134.87v2.541h7.293v-2.541z" style="color-rendering:auto;color:#000000;dominant-baseline:auto;fill:url(#linearGradient979);font-feature-settings:normal;font-variant-alternates:normal;font-variant-caps:normal;font-variant-ligatures:normal;font-variant-numeric:normal;font-variant-position:normal;image-rendering:auto;isolation:auto;mix-blend-mode:normal;shape-padding:0;shape-rendering:auto;solid-color:#000000;stroke-width:.26458;stroke:url(#linearGradient1020);text-decoration-color:#000000;text-decoration-line:none;text-decoration-style:solid;text-indent:0;text-orientation:mixed;text-transform:none;white-space:normal"/>
    <path d="m18.547 128.75v2.541h7.293v-2.541z" style="color-rendering:auto;color:#000000;dominant-baseline:auto;fill:url(#linearGradient979);font-feature-settings:normal;font-variant-alternates:normal;font-variant-caps:normal;font-variant-ligatures:normal;font-variant-numeric:normal;font-variant-position:normal;image-rendering:auto;isolation:auto;mix-blend-mode:normal;shape-padding:0;shape-rendering:auto;solid-color:#000000;stroke-width:.26458;stroke:url(#linearGradient1020);text-decoration-color:#000000;text-decoration-line:none;text-decoration-style:solid;text-indent:0;text-orientation:mixed;text-transform:none;white-space:normal"/>
    <path d="m18.547 122.64v2.5391h7.293v-2.5391z" style="color-rendering:auto;color:#000000;dominant-baseline:auto;fill:url(#linearGradient979);font-feature-settings:normal;font-variant-alternates:normal;font-variant-caps:normal;font-variant-ligatures:normal;font-variant-numeric:normal;font-variant-position:normal;image-rendering:auto;isolation:auto;mix-blend-mode:normal;shape-padding:0;shape-rendering:auto;solid-color:#000000;stroke-width:.26458;stroke:url(#linearGradient1020);text-decoration-color:#000000;text-decoration-line:none;text-decoration-style:solid;text-indent:0;text-orientation:mixed;text-transform:none;white-space:normal"/>
    <path d="m18.547 116.53v2.5391h7.293v-2.5391z" style="color-rendering:auto;color:#000000;dominant-baseline:auto;fill:url(#linearGradient979);font-feature-settings:normal;font-variant-alternates:normal;font-variant-caps:normal;font-variant-ligatures:normal;font-variant-numeric:normal;font-variant-position:normal;image-rendering:auto;isolation:auto;mix-blend-mode:normal;shape-padding:0;shape-rendering:auto;solid-color:#000000;stroke-width:.26458;stroke:url(#linearGradient1020);text-decoration-color:#000000;text-decoration-line:none;text-decoration-style:solid;text-indent:0;text-orientation:mixed;text-transform:none;white-space:normal"/>
    <path d="m18.547 110.41v2.541h7.293v-2.541z" style="color-rendering:auto;color:#000000;dominant-baseline:auto;fill:url(#linearGradient979);font-feature-settings:normal;font-variant-alternates:normal;font-variant-caps:normal;font-variant-ligatures:normal;font-variant-numeric:normal;font-variant-position:normal;image-rendering:auto;isolation:auto;mix-blend-mode:normal;shape-padding:0;shape-rendering:auto;solid-color:#000000;stroke-width:.26458;stroke:url(#linearGradient1020);text-decoration-color:#000000;text-decoration-line:none;text-decoration-style:solid;text-indent:0;text-orientation:mixed;text-transform:none;white-space:normal"/>
    <path d="m18.547 104.3v2.5391h7.293v-2.5391z" style="color-rendering:auto;color:#000000;dominant-baseline:auto;fill:url(#linearGradient979);font-feature-settings:normal;font-variant-alternates:normal;font-variant-caps:normal;font-variant-ligatures:normal;font-variant-numeric:normal;font-variant-position:normal;image-rendering:auto;isolation:auto;mix-blend-mode:normal;shape-padding:0;shape-rendering:auto;solid-color:#000000;stroke-width:.26458;stroke:url(#linearGradient1020);text-decoration-color:#000000;text-decoration-line:none;text-decoration-style:solid;text-indent:0;text-orientation:mixed;text-transform:none;white-space:normal"/>
    <path d="m18.547 98.183v2.5391h7.293v-2.5391z" style="color-rendering:auto;color:#000000;dominant-baseline:auto;fill:url(#linearGradient979);font-feature-settings:normal;font-variant-alternates:normal;font-variant-caps:normal;font-variant-ligatures:normal;font-variant-numeric:normal;font-variant-position:normal;image-rendering:auto;isolation:auto;mix-blend-mode:normal;shape-padding:0;shape-rendering:auto;solid-color:#000000;stroke-width:.26458;stroke:url(#linearGradient1020);text-decoration-color:#000000;text-decoration-line:none;text-decoration-style:solid;text-indent:0;text-orientation:mixed;text-transform:none;white-space:normal"/>
    <path d="m18.547 92.067v2.541h7.293v-2.541z" style="color-rendering:auto;color:#000000;dominant-baseline:auto;fill:url(#linearGradient979);font-feature-settings:normal;font-variant-alternates:normal;font-variant-caps:normal;font-variant-ligatures:normal;font-variant-numeric:normal;font-variant-position:normal;image-rendering:auto;isolation:auto;mix-blend-mode:normal;shape-padding:0;shape-rendering:auto;solid-color:#000000;stroke-width:.26458;stroke:url(#linearGradient1020);text-decoration-color:#000000;text-decoration-line:none;text-decoration-style:solid;text-indent:0;text-orientation:mixed;text-transform:none;white-space:normal"/>
    <path d="m18.547 85.954v2.5391h7.293v-2.5391z" style="color-rendering:auto;color:#000000;dominant-baseline:auto;fill:url(#linearGradient979);font-feature-settings:normal;font-variant-alternates:normal;font-variant-caps:normal;font-variant-ligatures:normal;font-variant-numeric:normal;font-variant-position:normal;image-rendering:auto;isolation:auto;mix-blend-mode:normal;shape-padding:0;shape-rendering:auto;solid-color:#000000;stroke-width:.26458;stroke:url(#linearGradient1020);text-decoration-color:#000000;text-decoration-line:none;text-decoration-style:solid;text-indent:0;text-orientation:mixed;text-transform:none;white-space:normal"/>
    <path d="m18.547 79.839v2.5391h7.293v-2.5391z" style="color-rendering:auto;color:#000000;dominant-baseline:auto;fill:url(#linearGradient979);font-feature-settings:normal;font-variant-alternates:normal;font-variant-caps:normal;font-variant-ligatures:normal;font-variant-numeric:normal;font-variant-position:normal;image-rendering:auto;isolation:auto;mix-blend-mode:normal;shape-padding:0;shape-rendering:auto;solid-color:#000000;stroke-width:.26458;stroke:url(#linearGradient1020);text-decoration-color:#000000;text-decoration-line:none;text-decoration-style:solid;text-indent:0;text-orientation:mixed;text-transform:none;white-space:normal"/>
    <path d="m18.547 73.724v2.541h7.293v-2.541z" style="color-rendering:auto;color:#000000;dominant-baseline:auto;fill:url(#linearGradient979);font-feature-settings:normal;font-variant-alternates:normal;font-variant-caps:normal;font-variant-ligatures:normal;font-variant-numeric:normal;font-variant-position:normal;image-rendering:auto;isolation:auto;mix-blend-mode:normal;shape-padding:0;shape-rendering:auto;solid-color:#000000;stroke-width:.26458;stroke:url(#linearGradient1020);text-decoration-color:#000000;text-decoration-line:none;text-decoration-style:solid;text-indent:0;text-orientation:mixed;text-transform:none;white-space:normal"/>
    <path d="m18.547 67.61v2.5391h7.293v-2.5391z" style="color-rendering:auto;color:#000000;dominant-baseline:auto;fill:url(#linearGradient979);font-feature-settings:normal;font-variant-alternates:normal;font-variant-caps:normal;font-variant-ligatures:normal;font-variant-numeric:normal;font-variant-position:normal;image-rendering:auto;isolation:auto;mix-blend-mode:normal;shape-padding:0;shape-rendering:auto;solid-color:#000000;stroke-width:.26458;stroke:url(#linearGradient1020);text-decoration-color:#000000;text-decoration-line:none;text-decoration-style:solid;text-indent:0;text-orientation:mixed;text-transform:none;white-space:normal"/>
    <path d="m18.547 61.495v2.5391h7.293v-2.5391z" style="color-rendering:auto;color:#000000;dominant-baseline:auto;fill:url(#linearGradient979);font-feature-settings:normal;font-variant-alternates:normal;font-variant-caps:normal;font-variant-ligatures:normal;font-variant-numeric:normal;font-variant-position:normal;image-rendering:auto;isolation:auto;mix-blend-mode:normal;shape-padding:0;shape-rendering:auto;solid-color:#000000;stroke-width:.26458;stroke:url(#linearGradient1020);text-decoration-color:#000000;text-decoration-line:none;text-decoration-style:solid;text-indent:0;text-orientation:mixed;text-transform:none;white-space:normal"/>
    <path d="m18.547 55.38v2.541h7.293v-2.541z" style="color-rendering:auto;color:#000000;dominant-baseline:auto;fill:url(#linearGradient979);font-feature-settings:normal;font-variant-alternates:normal;font-variant-caps:normal;font-variant-ligatures:normal;font-variant-numeric:normal;font-variant-position:normal;image-rendering:auto;isolation:auto;mix-blend-mode:normal;shape-padding:0;shape-rendering:auto;solid-color:#000000;stroke-width:.26458;stroke:url(#linearGradient1020);text-decoration-color:#000000;text-decoration-line:none;text-decoration-style:solid;text-indent:0;text-orientation:mixed;text-transform:none;white-space:normal"/>
    <path d="m18.547 49.267v2.5391h7.293v-2.5391z" style="color-rendering:auto;color:#000000;dominant-baseline:auto;fill:url(#linearGradient979);font-feature-settings:normal;font-variant-alternates:normal;font-variant-caps:normal;font-variant-ligatures:normal;font-variant-numeric:normal;font-variant-position:normal;image-rendering:auto;isolation:auto;mix-blend-mode:normal;shape-padding:0;shape-rendering:auto;solid-color:#000000;stroke-width:.26458;stroke:url(#linearGradient1020);text-decoration-color:#000000;text-decoration-line:none;text-decoration-style:solid;text-indent:0;text-orientation:mixed;text-transform:none;white-space:normal"/>
    <path d="m18.547 43.151v2.5391h7.293v-2.5391z" style="color-rendering:auto;color:#000000;dominant-baseline:auto;fill:url(#linearGradient979);font-feature-settings:normal;font-variant-alternates:normal;font-variant-caps:normal;font-variant-ligatures:normal;font-variant-numeric:normal;font-variant-position:normal;image-rendering:auto;isolation:auto;mix-blend-mode:normal;shape-padding:0;shape-rendering:auto;solid-color:#000000;stroke-width:.26458;stroke:url(#linearGradient1020);text-decoration-color:#000000;text-decoration-line:none;text-decoration-style:solid;text-indent:0;text-orientation:mixed;text-transform:none;white-space:normal"/>
    <path d="m18.547 37.036v2.541h7.293v-2.541z" style="color-rendering:auto;color:#000000;dominant-baseline:auto;fill:url(#linearGradient979);font-feature-settings:normal;font-variant-alternates:normal;font-variant-caps:normal;font-variant-ligatures:normal;font-variant-numeric:normal;font-variant-position:normal;image-rendering:auto;isolation:auto;mix-blend-mode:normal;shape-padding:0;shape-rendering:auto;solid-color:#000000;stroke-width:.26458;stroke:url(#linearGradient1020);text-decoration-color:#000000;text-decoration-line:none;text-decoration-style:solid;text-indent:0;text-orientation:mixed;text-transform:none;white-space:normal"/>
    <path d="m18.547 30.921v2.541h7.293v-2.541z" style="color-rendering:auto;color:#000000;dominant-baseline:auto;fill:url(#linearGradient979);font-feature-settings:normal;font-variant-alternates:normal;font-variant-caps:normal;font-variant-ligatures:normal;font-variant-numeric:normal;font-variant-position:normal;image-rendering:auto;isolation:auto;mix-blend-mode:normal;shape-padding:0;shape-rendering:auto;solid-color:#000000;stroke-width:.26458;stroke:url(#linearGradient1020);text-decoration-color:#000000;text-decoration-line:none;text-decoration-style:solid;text-indent:0;text-orientation:mixed;text-transform:none;white-space:normal"/>
    <path d="m18.547 24.808v2.5391h7.293v-2.5391z" style="color-rendering:auto;color:#000000;dominant-baseline:auto;fill:url(#linearGradient979);font-feature-settings:normal;font-variant-alternates:normal;font-variant-caps:normal;font-variant-ligatures:normal;font-variant-numeric:normal;font-variant-position:normal;image-rendering:auto;isolation:auto;mix-blend-mode:normal;shape-padding:0;shape-rendering:auto;solid-color:#000000;stroke-width:.26458;stroke:url(#linearGradient1020);text-decoration-color:#000000;text-decoration-line:none;text-decoration-style:solid;text-indent:0;text-orientation:mixed;text-transform:none;white-space:normal"/>
    <path d="m18.547 18.692v2.541h7.293v-2.541z" style="color-rendering:auto;color:#000000;dominant-baseline:auto;fill:url(#linearGradient979);font-feature-settings:normal;font-variant-alternates:normal;font-variant-caps:normal;font-variant-ligatures:normal;font-variant-numeric:normal;font-variant-position:normal;image-rendering:auto;isolation:auto;mix-blend-mode:normal;shape-padding:0;shape-rendering:auto;solid-color:#000000;stroke-width:.26458;stroke:url(#linearGradient1020);text-decoration-color:#000000;text-decoration-line:none;text-decoration-style:solid;text-indent:0;text-orientation:mixed;text-transform:none;white-space:normal"/>
    <path d="m18.547 12.577v2.541h7.293v-2.541z" style="color-rendering:auto;color:#000000;dominant-baseline:auto;fill:url(#linearGradient979);font-feature-settings:normal;font-variant-alternates:normal;font-variant-caps:normal;font-variant-ligatures:normal;font-variant-numeric:normal;font-variant-position:normal;image-rendering:auto;isolation:auto;mix-blend-mode:normal;shape-padding:0;shape-rendering:auto;solid-color:#000000;stroke-width:.26458;stroke:url(#linearGradient1020);text-decoration-color:#000000;text-decoration-line:none;text-decoration-style:solid;text-indent:0;text-orientation:mixed;text-transform:none;white-space:normal"/>
    <path d="m18.547 6.4638v2.5391h7.293v-2.5391z" style="color-rendering:auto;color:#000000;dominant-baseline:auto;fill:url(#linearGradient979);font-feature-settings:normal;font-variant-alternates:normal;font-variant-caps:normal;font-variant-ligatures:normal;font-variant-numeric:normal;font-variant-position:normal;image-rendering:auto;isolation:auto;mix-blend-mode:normal;shape-padding:0;shape-rendering:auto;solid-color:#000000;stroke-width:.26458;stroke:url(#linearGradient1020);text-decoration-color:#000000;text-decoration-line:none;text-decoration-style:solid;text-indent:0;text-orientation:mixed;text-transform:none;white-space:normal"/>
    <g transform="translate(-38.365 1.8521)" style="fill:url(#linearGradient979);font-feature-settings:normal;font-variant-caps:normal;font-variant-ligatures:normal;font-variant-numeric:normal;stroke-width:.52917;stroke:url(#linearGradient1020)" aria-label="n">
      <path d="m105.38 188.4.0558.77515q.71934-.89917 1.9286-.89917 1.0666 0 1.5875.62632.5209.62631.5333 1.8728v4.3346h-1.7921v-4.2912q0-.57051-.24805-.82476-.24805-.26045-.82476-.26045-.75654 0-1.1348.64493v4.7315h-1.7921v-6.7097z" style="fill:url(#linearGradient979);font-feature-settings:normal;font-variant-caps:normal;font-variant-ligatures:normal;font-variant-numeric:normal;stroke-width:.52917;stroke:url(#linearGradient1020)"/>
    </g>
    <g transform="translate(0 -11.974)" style="fill:url(#linearGradient979);font-feature-settings:normal;font-variant-caps:normal;font-variant-ligatures:normal;font-variant-numeric:normal;stroke-width:.52917;stroke:url(#linearGradient1020)" aria-label="t">
      <path d="m10.023 88.203v1.6495h1.1472v1.3146h-1.1472v3.3486q0 .37207.14263.5333.14263.16123.5457.16123.29766 0 .5271-.04341v1.3581q-.5271.16123-1.0852.16123-1.8852 0-1.9224-1.9038v-3.6153h-.97979v-1.3146h.97979v-1.6495z" style="fill:url(#linearGradient979);font-feature-settings:normal;font-variant-caps:normal;font-variant-ligatures:normal;font-variant-numeric:normal;stroke-width:.52917;stroke:url(#linearGradient1020)"/>
    </g>
    <path transform="scale(.26458)" d="m109.93 662.82c0 10.025 2.381 17.455 6.8203 22.602 4.4393 5.1463 10.753 7.785 17.916 8.8066 14.325 2.0431 32.515-1.962 50.596-5.8965 18.081-3.9345 36.059-7.8067 48.867-6.2305 6.4042.78815 11.384 2.8445 14.83 6.666 3.446 3.8215 5.5742 9.6343 5.5742 18.602h4.9961.00195c0-.02118-.00193-.04135-.00195-.0625.01008-8.931 2.1364-14.727 5.5742-18.539 3.446-3.8215 8.4259-5.8779 14.83-6.666 12.808-1.5762 30.786 2.296 48.867 6.2305 18.081 3.9345 36.27 7.9396 50.596 5.8965 7.1627-1.0216 13.477-3.6603 17.916-8.8066 4.4392-5.1464 6.8223-12.576 6.8223-22.602h-4.998c0 9.2435-2.1426 15.311-5.6113 19.332-3.4687 4.0212-8.442 6.2111-14.836 7.123-12.788 1.8238-30.755-1.898-48.824-5.8301-18.07-3.932-36.24-8.0651-50.545-6.3047-7.1524.88022-13.468 3.3272-17.93 8.2754-1.7978 1.9938-3.254 4.3647-4.3594 7.1172-1.1054-2.7524-2.5615-5.1234-4.3594-7.1172-4.462-4.9482-10.777-7.3952-17.93-8.2754-14.305-1.7604-32.473 2.3727-50.543 6.3047-18.07 3.932-36.036 7.6539-48.824 5.8301-6.3939-.91192-11.369-3.1019-14.838-7.123-3.4687-4.0212-5.6113-10.089-5.6113-19.332h-4.9961z" style="color-rendering:auto;color:#000000;dominant-baseline:auto;fill:url(#linearGradient979);font-feature-settings:normal;font-variant-alternates:normal;font-variant-caps:normal;font-variant-ligatures:normal;font-variant-numeric:normal;font-variant-position:normal;image-rendering:auto;isolation:auto;mix-blend-mode:normal;shape-padding:0;shape-rendering:auto;solid-color:#000000;stroke:url(#linearGradient1020);text-decoration-color:#000000;text-decoration-line:none;text-decoration-style:solid;text-indent:0;text-orientation:mixed;text-transform:none;white-space:normal"/>
    <g style="fill:url(#linearGradient976);font-feature-settings:normal;font-variant-caps:normal;font-variant-ligatures:normal;font-variant-numeric:normal;stroke-width:.52917;stroke:url(#linearGradient1020)" aria-label="O(1)">
      <path d="m64.465 119.14q0 1.111-.39274 1.9482t-1.1265 1.2919q-.72864.45476-1.6743.45476-.93534 0-1.6691-.44959-.7338-.44958-1.1369-1.2816-.40308-.83715-.40824-1.9224v-.37207q0-1.111.39791-1.9534.40308-.84749 1.1317-1.2971.73381-.45475 1.6743-.45475t1.6691.45475q.7338.44959 1.1317 1.2971.40308.84233.40308 1.9482zm-1.571-.34106q0-1.1834-.42375-1.7983-.42375-.61495-1.2092-.61495-.78031 0-1.2041.60978-.42375.60461-.42891 1.7777v.3669q0 1.1524.42375 1.788.42375.63562 1.2196.63562.78031 0 1.1989-.60979.41858-.61495.42375-1.788z" style="fill:url(#linearGradient976);font-feature-settings:normal;font-variant-caps:normal;font-variant-ligatures:normal;font-variant-numeric:normal;stroke-width:.52917;stroke:url(#linearGradient1020)"/>
      <path d="m65.56 119.67q0-1.1834.31523-2.2531.31523-1.0697.93018-1.8914.61495-.82682 1.3333-1.1472l.28939.80615q-.75448.55811-1.1782 1.726-.42375 1.1679-.42375 2.7285v.1602q0 1.5658.41858 2.7388.41858 1.173 1.1834 1.7518l-.28939.79065q-.7028-.31523-1.3126-1.1162-.60461-.79582-.92501-1.8397-.32039-1.0439-.34106-2.1808z" style="fill:url(#linearGradient976);font-feature-settings:normal;font-variant-caps:normal;font-variant-ligatures:normal;font-variant-numeric:normal;stroke-width:.52917;stroke:url(#linearGradient1020)"/>
      <path d="m72.774 122.73h-1.4934v-5.7568l-1.7828.55294v-1.2144l3.1161-1.1162h.1602z" style="fill:url(#linearGradient976);font-feature-settings:normal;font-variant-caps:normal;font-variant-ligatures:normal;font-variant-numeric:normal;stroke-width:.52917;stroke:url(#linearGradient1020)"/>
      <path d="m77.854 119.79q0 1.1679-.3359 2.2479t-.96635 1.9069q-.63045.82682-1.3488 1.1369l-.28939-.79065q.7338-.55294 1.1576-1.7053.42375-1.1524.43925-2.651v-.27389q0-1.5451-.42375-2.7234-.41858-1.1782-1.1731-1.7673l.28939-.79065q.7028.30489 1.3229 1.1059.62528.80098.96635 1.8655.34623 1.0645.36174 2.2066z" style="fill:url(#linearGradient976);font-feature-settings:normal;font-variant-caps:normal;font-variant-ligatures:normal;font-variant-numeric:normal;stroke-width:.52917;stroke:url(#linearGradient1020)"/>
    </g>
    <g transform="rotate(-25.01)" style="fill:url(#linearGradient1042);font-feature-settings:normal;font-variant-caps:normal;font-variant-ligatures:normal;font-variant-numeric:normal;stroke-width:.52917;stroke:url(#linearGradient1022)" aria-label="O(n)">
      <path d="m96.513 152.22q0 1.111-.39274 1.9482-.39274.83716-1.1265 1.2919-.72864.45475-1.6743.45475-.93534 0-1.6691-.44958-.7338-.44959-1.1369-1.2816-.40308-.83716-.40824-1.9224v-.37207q0-1.111.39791-1.9534.40308-.84749 1.1317-1.2971.73381-.45475 1.6743-.45475t1.6691.45475q.73381.44959 1.1317 1.2971.40308.84233.40308 1.9482zm-1.571-.34107q0-1.1834-.42375-1.7983t-1.2092-.61495q-.78031 0-1.2041.60979-.42375.60461-.42892 1.7777v.36691q0 1.1524.42375 1.788t1.2196.63562q.78031 0 1.1989-.60978.41858-.61495.42375-1.788z" style="fill:url(#linearGradient1042);font-feature-settings:normal;font-variant-caps:normal;font-variant-ligatures:normal;font-variant-numeric:normal;stroke-width:.52917;stroke:url(#linearGradient1022)"/>
      <path d="m97.608 152.75q0-1.1834.31523-2.2531t.93018-1.8914q.61495-.82683 1.3333-1.1472l.28939.80615q-.75448.55811-1.1782 1.726-.42375 1.1679-.42375 2.7285v.1602q0 1.5658.41858 2.7388.41858 1.173 1.1834 1.7518l-.28939.79065q-.7028-.31523-1.3126-1.1162-.60461-.79582-.92501-1.8397-.32039-1.0439-.34106-2.1808z" style="fill:url(#linearGradient1042);font-feature-settings:normal;font-variant-caps:normal;font-variant-ligatures:normal;font-variant-numeric:normal;stroke-width:.52917;stroke:url(#linearGradient1022)"/>
      <path d="m102.63 150.22.0465.64596q.59945-.74931 1.6071-.74931.88884 0 1.3229.52193t.44441 1.5606v3.6122h-1.4934v-3.576q0-.47542-.20671-.6873-.20671-.21704-.6873-.21704-.63045 0-.94567.53744v3.9429h-1.4934v-5.5914z" style="fill:url(#linearGradient1042);font-feature-settings:normal;font-variant-caps:normal;font-variant-ligatures:normal;font-variant-numeric:normal;stroke-width:.52917;stroke:url(#linearGradient1022)"/>
      <path d="m109.76 152.87q0 1.1679-.33589 2.2479-.3359 1.08-.96635 1.9069-.63045.82682-1.3488 1.1369l-.28938-.79065q.7338-.55294 1.1576-1.7053.42374-1.1524.43925-2.651v-.27388q0-1.5451-.42375-2.7234-.41858-1.1782-1.173-1.7673l.28938-.79065q.7028.30489 1.3229 1.1059.62529.80099.96635 1.8655.34623 1.0645.36173 2.2066z" style="fill:url(#linearGradient1042);font-feature-settings:normal;font-variant-caps:normal;font-variant-ligatures:normal;font-variant-numeric:normal;stroke-width:.52917;stroke:url(#linearGradient1022)"/>
    </g>
    <g style="fill:url(#linearGradient976);font-feature-settings:normal;font-variant-caps:normal;font-variant-ligatures:normal;font-variant-numeric:normal" aria-label="O(1)">
      <path d="m64.465 119.14q0 1.111-.39274 1.9482t-1.1265 1.2919q-.72864.45476-1.6743.45476-.93534 0-1.6691-.44959-.7338-.44958-1.1369-1.2816-.40308-.83715-.40824-1.9224v-.37207q0-1.111.39791-1.9534.40308-.84749 1.1317-1.2971.73381-.45475 1.6743-.45475t1.6691.45475q.7338.44959 1.1317 1.2971.40308.84233.40308 1.9482zm-1.571-.34106q0-1.1834-.42375-1.7983-.42375-.61495-1.2092-.61495-.78031 0-1.2041.60978-.42375.60461-.42891 1.7777v.3669q0 1.1524.42375 1.788.42375.63562 1.2196.63562.78031 0 1.1989-.60979.41858-.61495.42375-1.788z" style="fill:url(#linearGradient976);font-feature-settings:normal;font-variant-caps:normal;font-variant-ligatures:normal;font-variant-numeric:normal"/>
      <path d="m65.56 119.67q0-1.1834.31523-2.2531.31523-1.0697.93018-1.8914.61495-.82682 1.3333-1.1472l.28939.80615q-.75448.55811-1.1782 1.726-.42375 1.1679-.42375 2.7285v.1602q0 1.5658.41858 2.7388.41858 1.173 1.1834 1.7518l-.28939.79065q-.7028-.31523-1.3126-1.1162-.60461-.79582-.92501-1.8397-.32039-1.0439-.34106-2.1808z" style="fill:url(#linearGradient976);font-feature-settings:normal;font-variant-caps:normal;font-variant-ligatures:normal;font-variant-numeric:normal"/>
      <path d="m72.774 122.73h-1.4934v-5.7568l-1.7828.55294v-1.2144l3.1161-1.1162h.1602z" style="fill:url(#linearGradient976);font-feature-settings:normal;font-variant-caps:normal;font-variant-ligatures:normal;font-variant-numeric:normal"/>
      <path d="m77.854 119.79q0 1.1679-.3359 2.2479t-.96635 1.9069q-.63045.82682-1.3488 1.1369l-.28939-.79065q.7338-.55294 1.1576-1.7053.42375-1.1524.43925-2.651v-.27389q0-1.5451-.42375-2.7234-.41858-1.1782-1.1731-1.7673l.28939-.79065q.7028.30489 1.3229 1.1059.62528.80098.96635 1.8655.34623 1.0645.36174 2.2066z" style="fill:url(#linearGradient976);font-feature-settings:normal;font-variant-caps:normal;font-variant-ligatures:normal;font-variant-numeric:normal"/>
    </g>
    <g transform="rotate(-25.01)" style="fill:url(#linearGradient985);font-feature-settings:normal;font-variant-caps:normal;font-variant-ligatures:normal;font-variant-numeric:normal" aria-label="O(n)">
      <path d="m96.513 152.22q0 1.111-.39274 1.9482-.39274.83716-1.1265 1.2919-.72864.45475-1.6743.45475-.93534 0-1.6691-.44958-.7338-.44959-1.1369-1.2816-.40308-.83716-.40824-1.9224v-.37207q0-1.111.39791-1.9534.40308-.84749 1.1317-1.2971.73381-.45475 1.6743-.45475t1.6691.45475q.73381.44959 1.1317 1.2971.40308.84233.40308 1.9482zm-1.571-.34107q0-1.1834-.42375-1.7983t-1.2092-.61495q-.78031 0-1.2041.60979-.42375.60461-.42892 1.7777v.36691q0 1.1524.42375 1.788t1.2196.63562q.78031 0 1.1989-.60978.41858-.61495.42375-1.788z" style="fill:url(#linearGradient985);font-feature-settings:normal;font-variant-caps:normal;font-variant-ligatures:normal;font-variant-numeric:normal"/>
      <path d="m97.608 152.75q0-1.1834.31523-2.2531t.93018-1.8914q.61495-.82683 1.3333-1.1472l.28939.80615q-.75448.55811-1.1782 1.726-.42375 1.1679-.42375 2.7285v.1602q0 1.5658.41858 2.7388.41858 1.173 1.1834 1.7518l-.28939.79065q-.7028-.31523-1.3126-1.1162-.60461-.79582-.92501-1.8397-.32039-1.0439-.34106-2.1808z" style="fill:url(#linearGradient985);font-feature-settings:normal;font-variant-caps:normal;font-variant-ligatures:normal;font-variant-numeric:normal"/>
      <path d="m102.63 150.22.0465.64596q.59945-.74931 1.6071-.74931.88884 0 1.3229.52193t.44441 1.5606v3.6122h-1.4934v-3.576q0-.47542-.20671-.6873-.20671-.21704-.6873-.21704-.63045 0-.94567.53744v3.9429h-1.4934v-5.5914z" style="fill:url(#linearGradient985);font-feature-settings:normal;font-variant-caps:normal;font-variant-ligatures:normal;font-variant-numeric:normal"/>
      <path d="m109.76 152.87q0 1.1679-.33589 2.2479-.3359 1.08-.96635 1.9069-.63045.82682-1.3488 1.1369l-.28938-.79065q.7338-.55294 1.1576-1.7053.42374-1.1524.43925-2.651v-.27388q0-1.5451-.42375-2.7234-.41858-1.1782-1.173-1.7673l.28938-.79065q.7028.30489 1.3229 1.1059.62529.80099.96635 1.8655.34623 1.0645.36173 2.2066z" style="fill:url(#linearGradient985);font-feature-settings:normal;font-variant-caps:normal;font-variant-ligatures:normal;font-variant-numeric:normal"/>
    </g>
    <g transform="translate(-38.365 1.8521)" style="fill:url(#linearGradient979);font-feature-settings:normal;font-variant-caps:normal;font-variant-ligatures:normal;font-variant-numeric:normal" aria-label="n">
      <path d="m105.38 188.4.0558.77515q.71934-.89917 1.9286-.89917 1.0666 0 1.5875.62632.5209.62631.5333 1.8728v4.3346h-1.7921v-4.2912q0-.57051-.24805-.82476-.24805-.26045-.82476-.26045-.75654 0-1.1348.64493v4.7315h-1.7921v-6.7097z" style="fill:url(#linearGradient979);font-feature-settings:normal;font-variant-caps:normal;font-variant-ligatures:normal;font-variant-numeric:normal"/>
    </g>
    <g transform="translate(0 -11.974)" style="fill:url(#linearGradient979);font-feature-settings:normal;font-variant-caps:normal;font-variant-ligatures:normal;font-variant-numeric:normal" aria-label="t">
      <path d="m10.023 88.203v1.6495h1.1472v1.3146h-1.1472v3.3486q0 .37207.14263.5333.14263.16123.5457.16123.29766 0 .5271-.04341v1.3581q-.5271.16123-1.0852.16123-1.8852 0-1.9224-1.9038v-3.6153h-.97979v-1.3146h.97979v-1.6495z" style="fill:url(#linearGradient979);font-feature-settings:normal;font-variant-caps:normal;font-variant-ligatures:normal;font-variant-numeric:normal"/>
    </g>
  </g>
</svg>
