<svg width="8in" height="8in" version="1.1" viewBox="0 0 203.2 203.2" xmlns="http://www.w3.org/2000/svg" xmlns:xlink="http://www.w3.org/1999/xlink">
 <g display="none">
  <rect x="-10.784" y="-8.8778" width="227.06" height="221.06" fill="#fff" stroke="#fff" stroke-width="2.54"/>
 </g>
 <g>
  <path d="m30.677 171.77 152.22-72.312" fill="#aea79f" stroke="#c6c1bc" stroke-width="2.54"/>
  <g fill="none" stroke="#e46d43">
   <rect x="30.677" y="20.398" width="152.38" height="151.37" stroke-width="2.54"/>
   <g stroke-width="2.54">
    <path d="m30.174 176.67v7.292"/>
    <path d="m42.819 176.67v7.292"/>
    <path d="m55.465 176.67v7.292"/>
    <path d="m68.111 176.67v7.292"/>
    <path d="m80.757 176.67v7.292"/>
    <path d="m93.402 176.67v7.292"/>
    <path d="m106.05 176.67v7.292"/>
    <path d="m118.69 176.67v7.292"/>
    <path d="m131.34 176.67v7.292"/>
    <path d="m143.99 176.67v7.292"/>
    <path d="m156.63 176.67v7.292"/>
    <path d="m169.28 176.67v7.292"/>
    <path d="m181.92 176.67v7.292"/>
    <path d="m18.547 172.57h7.292"/>
    <path d="m18.547 166.46h7.292"/>
    <path d="m18.547 160.34h7.292"/>
    <path d="m18.547 154.23h7.292"/>
    <path d="m18.547 148.11h7.292"/>
    <path d="m18.547 142h7.292"/>
    <path d="m18.547 135.88h7.292"/>
    <path d="m18.547 129.77h7.292"/>
    <path d="m18.547 123.66h7.292"/>
    <path d="m18.547 117.54h7.292"/>
    <path d="m18.547 111.43h7.292"/>
    <path d="m18.547 105.31h7.292"/>
    <path d="m18.547 99.197h7.292"/>
    <path d="m18.547 93.082h7.292"/>
    <path d="m18.547 86.968h7.292"/>
    <path d="m18.547 80.853h7.292"/>
    <path d="m18.547 74.738h7.292"/>
    <path d="m18.547 68.624h7.292"/>
    <path d="m18.547 62.509h7.292"/>
    <path d="m18.547 56.395h7.292"/>
    <path d="m18.547 50.28h7.292"/>
    <path d="m18.547 44.165h7.292"/>
    <path d="m18.547 38.051h7.292"/>
    <path d="m18.547 31.936h7.292"/>
    <path d="m18.547 25.822h7.292"/>
    <path d="m18.547 19.707h7.292"/>
   </g>
  </g>
  <text x="103.04346" y="195.11229" fill="#e46d43" font-family="Roboto" font-size="12.7px" font-weight="bold" letter-spacing="0px" stroke-width=".26458" word-spacing="0px" style="font-feature-settings:normal;font-variant-caps:normal;font-variant-ligatures:normal;font-variant-numeric:normal;line-height:1.25" xml:space="preserve"><tspan x="103.04346" y="195.11229" fill="#e46d43" font-family="Roboto" font-size="12.7px" font-weight="bold" stroke-width=".26458" style="font-feature-settings:normal;font-variant-caps:normal;font-variant-ligatures:normal;font-variant-numeric:normal">n</tspan></text>
  <text x="7.1890783" y="96.561996" fill="#e46d43" font-family="Roboto" font-size="12.7px" font-weight="bold" letter-spacing="0px" stroke-width=".26458" word-spacing="0px" style="font-feature-settings:normal;font-variant-caps:normal;font-variant-ligatures:normal;font-variant-numeric:normal;line-height:1.25" xml:space="preserve"><tspan x="7.1890783" y="96.561996" fill="#e46d43" font-family="Roboto" font-size="12.7px" font-weight="bold" stroke-width=".26458" style="font-feature-settings:normal;font-variant-caps:normal;font-variant-ligatures:normal;font-variant-numeric:normal">t</tspan></text>
 </g>
</svg>
